<svg width="24" height="25" viewBox="0 0 24 25" fill="none" xmlns="http://www.w3.org/2000/svg">
<path d="M22.478 24.5001H16.4839C16.0624 24.5001 15.7073 24.3518 15.4185 24.0552C15.1298 23.7586 14.9854 23.4074 14.9854 23.0015V17.0074C14.9854 16.5859 14.8371 16.2308 14.5405 15.942C14.2439 15.6532 13.8927 15.5088 13.4868 15.5088H10.4898C10.0683 15.5088 9.71317 15.6532 9.42439 15.942C9.13561 16.2308 8.99122 16.5859 8.99122 17.0074V23.0015C8.99122 23.4074 8.84293 23.7586 8.54634 24.0552C8.24976 24.3518 7.89854 24.5001 7.49268 24.5001H1.47512C1.1161 24.5001 0.780488 24.3479 0.468293 24.0435C0.156098 23.7391 0 23.3996 0 23.0249C0 22.744 0.0702439 22.4864 0.210732 22.2522L10.162 8.29709L6.20488 2.77123C5.98634 2.4122 5.93171 2.03366 6.04098 1.63561C6.15024 1.23756 6.38439 0.937075 6.74341 0.734147C7.10244 0.53122 7.48098 0.480488 7.87902 0.581952C8.27707 0.683415 8.57756 0.91366 8.78049 1.27269L11.9883 5.74489L15.1727 1.24927C15.3756 0.905855 15.68 0.679513 16.0859 0.570244C16.4917 0.460976 16.8702 0.507805 17.2215 0.710733C17.5727 0.91366 17.8029 1.21415 17.9122 1.6122C18.0215 2.01025 17.9746 2.38879 17.7717 2.74781L13.8146 8.29709L23.7659 22.2757C23.9063 22.5254 23.9766 22.7674 23.9766 23.0015C23.9766 23.3762 23.8244 23.7196 23.52 24.0318C23.2156 24.344 22.8683 24.5001 22.478 24.5001Z" fill="black"/>
</svg>
